<svg id="Layer_1" data-name="Layer 1" xmlns="http://www.w3.org/2000/svg" viewBox="0 0 20 20">
    <defs>
        <style>.cls-1{fill:#faa71d;}.cls-2{fill:#1281c5;}</style>
    </defs>
    <title>Untitled-1</title>
    <path class="cls-1"
          d="M16,0H4A4,4,0,0,0,0,4V16a4,4,0,0,0,4,4H16a4,4,0,0,0,4-4V4a4,4,0,0,0-4-4m0,1a3,3,0,0,1,3,3V16a3,3,0,0,1-3,3H4a3,3,0,0,1-3-3V4A3,3,0,0,1,4,1Z"/>
    <path class="cls-2"
          d="M12.18,10.17a.35.35,0,0,1,0-.51L16.05,6H13a.35.35,0,0,0-.26.11h0L10.07,8.77h0A.88.88,0,0,1,9.51,9h-.8a.18.18,0,0,1-.18-.18h0V6.32A.35.35,0,0,0,8.19,6h-2V9H3.95v1h0a.88.88,0,0,0,.88.88H6.18v3h2a.35.35,0,0,0,.35-.35V11h0a.18.18,0,0,1,.18-.17h.78a.88.88,0,0,1,.6.24l2.64,2.67a.35.35,0,0,0,.25.1H16l-3.86-3.71h0"/>
</svg>